<?xml version="1.0" encoding="UTF-8"?>
<svg width="595px" height="175px" viewBox="0 0 595 175" version="1.1" xmlns="http://www.w3.org/2000/svg" xmlns:xlink="http://www.w3.org/1999/xlink">
    <!-- Generator: Sketch 49.3 (51167) - http://www.bohemiancoding.com/sketch -->
    <title>OUR FLOWERS</title>
    <desc>Created with Sketch.</desc>
    <defs></defs>
    <g id="Symbols" stroke="none" stroke-width="1" fill="none" fill-rule="evenodd">
        <g id="OUR-FLOWERS" transform="translate(-12.000000, -8.000000)">
            <g transform="translate(12.000000, 8.000000)">
                <path d="M435.271,82.17 L428.295,78.849 C430.254,79.765 432.608,80.887 435.271,82.17 Z M319.967,50.148 L319.903,50.16 C319.903,50.16 311.842,68.873 313.917,82.155 C315.993,95.437 330.1,90.287 337.659,84.291 C344.261,79.055 330.914,55.998 327.424,50.236 C337.238,50.737 348.824,52.696 360.998,55.605 L353.625,53.956 C353.625,53.956 346.007,76.147 350.803,91.941 C355.598,107.734 362.622,111.169 373.158,100.515 C383.692,89.863 361.016,55.617 361.01,55.608 C372.361,58.321 384.218,61.858 395.615,65.803 C393.939,69.798 386.646,88.109 387.944,101.281 C389.409,116.143 399.969,124.013 410.586,106.763 C420.03,91.419 404.586,71.864 401.057,67.73 C409.49,70.784 417.578,74.03 424.908,77.295 C425.833,77.707 426.967,78.228 428.27,78.837 C428.268,78.846 422.907,99.862 423.086,116.101 C423.265,132.343 442.359,133.039 448.871,116.986 C455.382,100.933 435.275,82.172 435.274,82.171 C445.283,86.994 459.646,94.083 473.749,101.017 L473.596,100.942 C473.596,100.942 461.729,120.034 461.451,132.211 C461.174,144.387 476.651,150.592 485.413,138.046 C494.175,125.5 477.963,103.088 477.963,103.088 C491.176,109.578 503.744,115.713 511.78,119.453 C511.768,119.491 504.405,142.952 505.834,153.55 C507.264,164.157 516.616,171.007 526.27,159.835 C535.902,148.688 514.65,120.857 514.553,120.73 C516.094,121.431 517.387,122 518.377,122.41 C526.091,125.601 535.292,126.681 544.375,128.73 L544.144,128.691 C544.144,128.691 526.458,165.166 553.248,163.595 C577.468,162.175 556.094,135.749 551.77,130.693 C553.777,131.327 555.756,132.051 557.688,132.905 C575.017,140.563 592.589,139.633 594.26,127.643 C595.932,115.653 580.849,115.185 574.473,117.27 C566.216,119.97 561.814,121.302 556.03,121.461 C561.708,117.459 588.17,97.717 571.325,88.613 C552.782,78.592 540.907,95.907 549.285,121.438 C543.469,121.271 537.162,120.774 531.287,120.228 C528.143,119.936 523.062,118.301 516.728,115.759 C522.279,113.516 552.884,100.462 542.624,89.243 C531.391,76.959 516.305,85.464 509.929,112.899 C501.685,109.293 492.058,104.657 482.1,99.658 C490.09,95.929 515.236,83.308 513.682,72.84 C511.836,60.406 500.869,60.619 493.625,65.134 C478.405,74.622 475.833,91.5 475.405,96.269 C465.292,91.11 455.087,85.737 445.861,80.83 C451.76,79.701 485.181,72.737 480.692,60.726 C475.79,47.61 453.219,33.626 436.931,76.065 C434.329,74.674 431.854,73.348 429.539,72.108 C422.123,68.137 412.953,64.464 403.131,61.17 C403.189,61.155 450.247,49.394 448.876,37.204 C447.505,25.008 442.635,19.989 429.083,27.692 C415.537,35.392 395.352,58.649 395.334,58.67 C384.56,55.368 373.371,52.524 363.102,50.236 C363.251,50.142 400.867,26.33 391.195,11.382 C381.505,-3.596 368.855,-0.84 363.052,8.923 C357.255,18.679 352.987,48.049 352.98,48.096 C340.879,45.676 331.019,44.217 326.192,43.93 C326.192,43.93 345.053,20.058 336.143,12.208 C327.232,4.358 317.989,4.358 316.208,14.238 C314.427,24.118 317.681,44.184 317.681,44.184 C305.081,45.469 292.029,50.103 292.029,50.103 C289.291,56.452 301.135,50.678 319.967,50.148 Z" id="Fill-467" fill="#AEC0AF"></path>
                <g id="Group" transform="translate(0.000000, 2.000000)">
                    <path d="M212.664142,49.1739363 C212.275455,51.6018359 211.514518,54.1502695 210.245001,56.764541 C208.350878,60.6722743 205.308097,64.7197865 200.648688,68.6913318 C200.045353,69.2079062 198.986617,69.0569855 198.59793,68.3813872 C195.786234,63.4931755 187.557094,46.1241217 203.734979,32.8137218 C204.26483,32.3812174 204.811119,31.9497259 205.390282,31.5222859 C205.994584,31.0826912 206.632727,30.639045 207.302776,30.2045148 C207.92835,29.8023971 208.858491,30.0181428 209.211403,30.6339805 C210.735211,33.3475154 214.063222,40.474216 212.664142,49.1739363" id="Fill-461" fill="#57883E"></path>
                    <path d="M210,56.8275262 C208.134443,60.7151434 205.137552,64.74182 200.548415,68.6929208 C199.95418,69.206836 198.91141,69.0566921 198.528585,68.3845717 C195.759295,63.5215233 187.654263,46.2418811 203.588159,33 C204.749966,34.1860356 195.970706,39.7635268 195.54598,49.9723008 C195.122206,60.1810747 197.838167,64.2017052 200.053219,64.4032406 C202.26827,64.6057836 208.251576,55.9760393 210,56.8275262" id="Fill-462" fill="#2D572E"></path>
                    <path d="M212.655301,48.9983745 C210.105996,48.4584288 211.287865,40.9272895 209.008474,40.3843329 C206.730076,39.8413763 201.380403,57.9957977 199.35505,56.9570544 C197.329696,55.9193148 204.573734,40.3431847 205.855829,37.6966476 C207.137925,35.0501105 206.516724,32.4095952 205.189973,31.5083474 C205.810182,31.0727778 206.465122,30.6331937 207.15281,30.2026422 C207.79485,29.8042064 208.749475,30.0179767 209.111677,30.6281756 C210.675595,33.3168646 214.091209,40.3783112 212.655301,48.9983745" id="Fill-463" fill="#659941"></path>
                    <path d="M101,102 L96,104 C97.9156894,103.244296 99.6039224,102.570952 101,102" id="Fill-464" fill="#C7BFB0"></path>
                    <path d="M95.9769883,104.542922 L100.743693,102.743531 C99.4127547,103.257213 97.8032933,103.863018 95.9769883,104.542922 Z M151.886979,45.5905863 C144.719575,40.2424798 140.629423,49.560862 139.950944,56.1035559 C139.358238,61.817148 156.287459,66.3681954 160.5906,67.4296058 C155.834497,71.9586239 149.581691,76.6498576 142.613783,81.1718664 L146.781035,78.3791555 C146.781035,78.3791555 139.913357,64.0571245 130.318269,58.8281763 C120.724144,53.5982268 115.883231,55.3675779 116.01141,65.5851549 C116.139588,75.8017306 142.599327,81.1748704 142.607037,81.176873 C136.109439,85.393476 128.993114,89.4608808 121.897991,93.1107306 C120.802208,90.3841075 115.598925,78.0757523 108.842078,72.4022134 C101.216893,66.0007071 92.6722918,67.3645193 95.8478459,80.7793448 C98.6725952,92.7111998 114.931047,94.5676666 118.490173,94.8320179 C113.177023,97.4675199 107.933263,99.842676 103.03067,101.841332 C102.410979,102.093667 101.645762,102.395068 100.760076,102.736521 C100.757185,102.731515 93.3989588,90.0686884 85.7236589,82.3834764 C78.0454679,74.6962617 68.924544,83.6401462 73.4319997,94.4865588 C77.9384917,105.333973 95.974097,104.543923 95.974097,104.543923 C89.1083467,107.099319 79.1778734,110.684082 69.4382224,114.216776 C69.5442349,114.178726 66.0824472,99.2749216 60.5167947,93.3119981 C54.9511422,87.3490746 44.9194752,91.8991207 46.7496352,102.160756 C48.580759,112.423393 66.5286631,115.27318 66.5286631,115.27318 C57.4077393,118.586583 48.7494151,121.755794 43.2984488,123.870604 C43.2859201,123.846572 35.7069952,109.040898 30.0931552,104.66208 C24.4744965,100.280257 16.9630341,101.545939 17.739816,111.583277 C18.5156343,121.597584 41.3198714,124.592563 41.4239563,124.606582 C40.3859983,125.020132 39.5244064,125.375604 38.8767668,125.660983 C33.8305752,127.880933 29.0879646,131.834186 23.9453981,135.266747 C24.0697218,135.173623 15.1608228,109.123008 3.55438936,122.890301 C-6.93891356,135.337842 15.2649077,137.600849 19.6210548,137.920273 C18.3999843,138.592166 17.1490377,139.206983 15.8605048,139.736687 C4.29647636,144.491004 -3.36340347,153.472939 1.47365452,160.023644 C6.30974875,166.574348 13.4771527,159.469908 15.4393463,155.374466 C17.9797896,150.071419 19.3849362,147.29473 21.9754944,144.407894 C21.2314799,149.082105 18.2727694,171.387744 30.2897601,167.560659 C43.5172199,163.348061 40.8910029,149.292384 25.0932236,141.142555 C27.8505105,138.396906 30.9875146,135.57015 33.9500801,132.976704 C35.534484,131.58886 38.6396844,129.902619 42.7462204,128.042147 C41.2379527,131.813158 33.2446156,152.930218 43.2165301,153.31573 C54.1358102,153.737291 57.1080132,142.336141 47.2160899,126.108578 C52.6998237,123.828548 59.3024705,121.370282 66.2270096,118.925032 C64.2898734,124.591562 58.6076072,142.848822 64.2195197,147.104477 C70.8838465,152.158192 75.8365544,146.727977 77.0614798,141.04843 C79.6366181,129.11257 72.9289226,119.784174 70.8954114,117.294866 C77.9674042,114.849617 85.1801043,112.463446 91.7249261,110.329611 C89.5362514,113.736137 77.3968646,133.306142 85.0808381,136.874884 C93.4722037,140.771061 110.409135,136.497382 98.0673606,108.271877 C99.9158319,107.673081 101.676602,107.105327 103.321722,106.574621 C108.595359,104.871358 114.537837,102.173774 120.602712,98.979529 C120.582473,99.0145756 104.404976,127.506435 110.735846,132.674302 C117.071534,137.846175 121.661872,137.882223 124.302545,127.611575 C126.941291,117.344933 125.364597,96.4061095 125.36267,96.3870842 C131.869905,92.733229 138.354011,88.658815 144.154818,84.7646404 C144.129761,84.8807948 137.936707,114.554225 149.382195,117.009487 C160.849848,119.470758 165.388144,112.004837 163.496304,104.512882 C161.605428,97.0269345 149.837084,80.8965005 149.818773,80.8704659 C156.524541,76.1501936 161.748063,72.0577556 164.106357,69.8498218 C164.106357,69.8498218 166.581266,90.4391807 174.355832,89.867421 C182.131361,89.2946599 186.389206,84.8036923 182.590106,79.2092585 C178.790042,73.615826 167.908349,65.5931656 167.908349,65.5931656 C173.111631,58.8562136 176.956991,50.29684 176.956991,50.29684 C175.250191,45.9280347 172.493868,54.4463538 164.066844,63.8488477 C164.090937,63.8117985 159.053419,50.9396942 151.886979,45.5905863 Z" id="Fill-465" fill="#AEC0AF"></path>
                    <path d="M412,76 L419,79 C416.327838,77.8410117 413.96574,76.8274616 412,76" id="Fill-466" fill="#C7BFB0"></path>
                    <path d="M190,52.6642271 C190,52.6642271 211.253961,64.3403442 212.485083,66.2287027 C213.716205,68.1190551 217.720965,73.9257075 219.253842,77.2856695 C220.787683,80.6456314 223.060004,86.6257655 225.43548,90.1741645 C227.810957,93.7235605 239.235226,105.543249 244.104761,107.547262 C248.974295,109.551275 250.645999,108.208287 250.737586,104.055693 C250.828208,99.9030989 235.96509,91.8700978 232.382593,89.8740611 C228.799132,87.8780243 222.781386,81.1630855 222.129673,78.7722283 C221.477959,76.3823681 217.084677,68.8738003 217.084677,68.8738003 C217.084677,68.8738003 245.969279,84.7503683 249.134332,85.9866748 C252.300349,87.2229813 259.018012,95.7774245 262.009531,103.987895 C265.001051,112.199363 296.625549,164.003596 311.899363,147.441077 C327.173178,130.877561 273.934155,121.181529 265.107099,105.384722 C256.280043,89.5879159 256.280043,89.5879159 256.280043,89.5879159 C256.280043,89.5879159 289.672652,104.827387 295.297056,106.790522 C300.92146,108.75266 315.719986,112.563276 315.719986,112.563276 C315.719986,112.563276 317.289498,113.652023 318.862865,117.791656 C320.435269,121.932286 336.099533,156.05933 350.980969,149.613587 C365.86337,143.166846 342.476878,135.677222 337.285343,131.812767 C332.093808,127.948313 328.284754,130.425911 317.868906,113.150522 C317.868906,113.150522 340.408941,117.39883 345.143505,119.723883 C349.878069,122.04794 369.670495,133.255457 377.662663,140.098015 C385.654832,146.939575 401.658449,161.014526 408.957449,149.816979 C416.256448,138.618435 385.404173,140.536704 370.897761,132.09293 C356.392313,123.649156 349.083673,121.309147 349.489548,120.348019 C349.894459,119.385893 370.583473,121.466677 376.477817,122.788727 C382.372162,124.110777 417.855846,126.949297 420.722036,114.897303 C423.58919,102.845309 403.444877,109.970023 398.483756,112.118604 C393.523598,114.268183 378.67012,119.773734 375.651606,119.938243 C372.633093,120.102751 348.305666,117.90731 348.305666,117.90731 C348.305666,117.90731 354.102639,114.91824 362.722419,111.252193 C371.879187,107.356831 399.052559,109.50242 405.405803,100.941995 C409.012401,96.081516 403.978974,90.7673922 397.159119,92.0784753 C390.340228,93.3895584 369.91055,98.8213307 361.90392,107.070685 C353.896327,115.32004 345.246661,117.292148 345.246661,117.292148 C345.246661,117.292148 316.879766,111.56127 311.430824,110.057761 C305.980917,108.55525 287.809098,100.938007 287.809098,100.938007 C287.809098,100.938007 293.500023,95.3058334 305.069868,93.6577571 C316.639712,92.0086838 349.355542,93.9817891 353.573363,93.5949448 C357.791183,93.2081005 367.669079,92.5131766 367.525432,86.7294557 C367.381785,80.9467319 354.43428,79.3046377 345.505033,80.8091429 C336.576749,82.3136482 320.217388,83.5180499 307.917741,88.6497189 C295.617129,93.7813878 285.736341,98.8592175 284.798297,99.7714921 C284.798297,99.7714921 250.132148,86.2449033 249.810147,84.3844615 C249.488147,82.5240197 260.386996,85.529042 265.641196,86.182091 C270.89636,86.834143 296.979364,92.298817 297.896198,83.5619189 C298.813032,74.8250208 281.940784,76.3714009 276.205511,78.1710244 C270.470239,79.970648 263.468174,82.1531277 260.275163,81.8570124 C257.082152,81.5618941 250.775184,82.5319958 246.612316,81.0374608 C242.449447,79.5429258 236.837576,79.3006496 237.094984,76.938706 C237.353355,74.5767624 255.88863,65.5836298 261.218991,64.7451349 C266.548389,63.9066399 289.620592,60.7700107 290.545139,50.7030861 C291.469685,40.6351645 278.076778,46.6093165 273.851244,48.3261872 C269.625711,50.044055 246.972879,68.8089939 240.010341,71.7711444 C233.047804,74.7332948 231.983467,74.6355867 223.955628,70.0642438 C215.928753,65.4938979 191.012277,50.2614057 191.012277,50.2614057 L190,52.6642271 Z" id="Fill-468" fill="#4E7551"></path>
                    <path d="M177.086112,127.981884 C175.524843,127.272432 173.768773,126.701785 171.807399,126.356698 C168.876797,125.840032 165.48402,125.838104 161.602333,126.660336 C161.098143,126.765405 160.838409,127.343762 161.108647,127.786206 C163.066202,130.986453 170.601354,141.490396 183.795273,138.455945 C184.22498,138.355696 184.659461,138.246772 185.103492,138.119533 C185.561846,137.985547 186.034524,137.835174 186.511976,137.666486 C186.956007,137.506474 187.135529,136.968601 186.888209,136.565679 C185.790068,134.807471 182.680899,130.521839 177.086112,127.981884" id="Fill-475" fill="#4E7551"></path>
                    <path d="M171.904462,126.356698 C168.947539,125.840032 165.524292,125.838104 161.607742,126.660336 C161.099024,126.765405 160.836958,127.343762 161.109623,127.786206 C163.084758,130.986453 170.687586,141.490396 184,138.455945 C183.682051,137.432251 177.376069,139.744719 171.122115,136.148297 C164.868161,132.551875 163.379584,129.692859 164.007773,128.50819 C164.635963,127.324484 171.823529,127.550043 171.904462,126.356698" id="Fill-476" fill="#4E7551"></path>
                    <path d="M177.050041,128 C176.549768,129.54797 181.432709,131.993344 181.022522,133.402206 C180.611378,134.810022 168.033611,130.218408 168.000068,131.696301 C167.967483,133.174194 179.615622,135.730436 181.611926,136.138347 C183.607271,136.545213 184.98542,137.942569 185.096592,139 C185.556614,138.854616 186.031011,138.691452 186.510201,138.508415 C186.955847,138.334791 187.136022,137.751165 186.887802,137.313968 C185.785666,135.406199 182.665184,130.756014 177.050041,128" id="Fill-477" fill="#4E7551"></path>
                    <path d="M361.793523,47.9396462 C361.793523,47.9396462 366.013011,54.1349638 376.312593,53.9977541 C376.491165,54.0027254 376.628455,54.0037197 376.783025,53.9778686 C378.374814,53.9470461 380.095251,53.7452086 381.965459,53.3534649 C389.854316,51.7168909 400.329591,46.6689647 413.870354,34.9763094 C414.40607,34.5159608 413.240551,32.2062637 411.131287,28.9738808 C404.541398,18.87604 388.708958,-0.210032432 387.008682,0.00174780494 C385.468738,0.194636847 367.976345,15.1773429 361.44406,29.767311 C358.486098,36.3732635 357.772769,42.8927143 361.793523,47.9396462 Z" id="Fill-496" fill="#FFBE98"></path>
                    <path d="M377,54 C378.582508,53.9691824 380.292916,53.7673771 382.15222,53.3756959 C389.995086,51.7393829 400.409289,46.6922618 413.87111,35.0014713 C414.403703,34.5411961 413.244978,32.2318673 411.148012,29 C411.148012,29 411.587067,32.7885717 406.643876,36.5065612 C401.862944,40.1142039 381.867788,53.4224193 377,54" id="Fill-497" fill="#FFAB7A"></path>
                    <path d="M361.447736,30 C358.485325,36.5417564 357.770924,42.9978517 361.797725,47.9957378 C361.797725,47.9957378 367.550436,56.3363788 382,53.3569455 C382,53.3569455 369.348459,47.7486004 376.819387,37.211292 C376.819387,37.211292 365.273582,41.8842565 361.447736,30" id="Fill-498" fill="#D18C64"></path>
                    <path d="M393.264556,20.7237742 C396.657268,15.8156645 387.35616,5.86174072 384.775083,6.00145549 C382.194968,6.14016512 364.125508,26.7164323 370.264701,33.1503479 C376.404855,39.5852687 388.434173,27.7125283 393.264556,20.7237742" id="Fill-499" fill="#FFF3EC"></path>
                    <path d="M362,47.2821034 C362,47.2821034 361.650311,47.908101 360.952856,49.0490968 C360.2554,50.1900925 359.207295,51.8490863 357.783563,53.8960787 C356.361752,55.9430711 354.557589,58.378062 352.295181,61.0110522 C350.011638,63.6140425 347.308276,66.4930317 343.790255,68.9700225 C342.031245,70.1950179 340.058963,71.3220137 337.810004,72.038011 C335.570652,72.7380084 332.987376,72.9150078 330.50305,72.1550106 C329.878606,71.9880112 329.298353,71.6790124 328.68832,71.4380133 C328.146494,71.1520143 327.600827,70.8640154 327.051316,70.5740165 C325.950373,69.9630188 324.86288,69.3310211 323.773466,68.6870235 C321.597519,67.3890284 319.402359,66.0330334 317.171653,64.6570386 C308.265161,59.1510591 298.73903,53.3300808 288.727753,48.721098 C283.720673,46.4541065 278.598312,44.4571139 273.440405,43.2561184 C268.305555,42.0531229 263.1073,41.5831246 258.473926,42.6511206 C257.908084,42.81412 257.345124,42.9761194 256.784085,43.1371188 C256.2144,43.2761183 255.711963,43.5691172 255.17302,43.7701165 C254.629273,43.9641157 254.141246,44.2601146 253.651298,44.5471136 C253.141175,44.8381125 252.694458,45.0631116 252.152633,45.4511102 C251.103567,46.1541076 250.06699,46.850105 249.041941,47.5381024 C248.038028,48.2300998 247.045642,48.9130973 246.066706,49.5870948 C244.114599,50.9450897 242.21725,52.3050846 240.408284,53.6430796 C238.581065,54.9610747 236.834543,56.2630699 235.165837,57.5280652 C231.838031,60.0690557 228.78306,62.406047 226.121007,64.540039 C223.455112,66.677031 221.13122,68.5400241 219.216579,70.0750184 C215.429567,73.2090067 213.264188,75 213.264188,75 L213,74.7100011 C213,74.7100011 214.853157,72.5540091 218.324105,69.0170223 C220.041806,67.228029 222.179325,65.1140369 224.682865,62.7440457 C227.185444,60.3710546 230.065571,57.7590643 233.283859,54.9980746 C236.494462,52.2230849 240.064359,49.3440957 243.9484,46.4081066 C244.926376,45.6791093 245.91684,44.9401121 246.920753,44.1921149 C247.930431,43.4811175 248.952598,42.7621202 249.986293,42.0341229 C250.464713,41.6721243 251.126623,41.2841257 251.716482,40.933127 C252.320752,40.5661284 252.934628,40.2111297 253.594618,39.9601307 C254.249803,39.7021316 254.885775,39.3551329 255.5669,39.1761336 C256.244181,38.9791343 256.924345,38.7821351 257.60739,38.5831358 C263.168784,37.4261401 268.900218,38.1051376 274.296374,39.617132 C279.72039,41.1181264 284.947465,43.3221181 290.00354,45.8091089 C300.116649,50.8000902 309.559201,56.9300674 318.332158,62.678046 C320.527318,64.1130406 322.681169,65.5240353 324.802357,66.8680303 C325.865833,67.5350278 326.917781,68.1830254 327.953397,68.7950231 C328.482733,69.098022 329.008227,69.3980209 329.530839,69.6970198 C330.040961,69.910019 330.523224,70.2010179 331.045836,70.3570173 C333.116107,71.0700147 335.334324,71.0230148 337.386343,70.4650169 C339.443165,69.892019 341.339553,68.9060227 343.059175,67.7950269 C346.505145,65.5500352 349.266148,62.8200454 351.598686,60.3360547 C353.915853,57.8210641 355.786303,55.4720728 357.264794,53.4910802 C358.746167,51.5090876 359.844228,49.8980936 360.574347,48.7880977 C361.306387,47.6781019 361.672407,47.0731041 361.672407,47.0731041 L362,47.2821034" id="Fill-500" fill="#734224"></path>
                    <path d="M300.777736,20.2088309 C298.654886,21.4707437 295.048679,23.9695313 292.206283,27.7302318 C289.006939,31.9606442 286.781431,37.7984931 288.729104,45.2898485 C289.122782,46.8131575 289.687871,48.4085758 290.460159,50.0680913 C290.842535,50.8903376 291.777757,51.2358614 292.544394,50.829245 C295.313328,49.3830529 301.368254,45.2557968 303.349831,36.1339701 C303.806611,34.0648337 304.050541,31.7292935 303.991207,29.1093222 C303.942232,26.7417334 303.654037,24.1457985 303.050334,21.2884674 C302.822415,20.2138385 301.68282,19.6740203 300.777736,20.2088309" id="Fill-501" fill="#4E7551"></path>
                    <path d="M293.175574,27.5881735 C293.175574,27.5881735 292.15784,35.4697922 295.022993,39.3353934 C297.888146,43.2009946 305,28.9419204 305,28.9419204 C304.950861,26.6178408 304.6617,24.0696113 304.055974,21.2647893 C303.827291,20.2099088 302.683875,19.6800108 301.775758,20.2049932 C299.645793,21.4437159 296.027498,23.8965834 293.175574,27.5881735 Z" id="Fill-502" fill="#4E7551"></path>
                    <path d="M289,45.2215264 C289.403891,46.7630619 289.983638,48.3775694 290.77596,50.056941 C291.168256,50.8890255 292.127738,51.2386834 292.914262,50.8272019 C295.755024,49.3637061 301.967019,45.1870674 304,35.9560979 C303.484991,35.9763679 297.149317,49.6008654 293.719145,48.1870311 C290.268681,46.7731969 300.8626,28.9021291 299.96689,28.0305181 C299.057653,27.1457314 291.633986,45.7982087 289,45.2215264" id="Fill-503" fill="#4E7551"></path>
                    <path d="M124.983577,150.185349 C124.983577,150.185349 125.059099,155.38912 119.262294,159.622798 C119.164502,159.700645 119.088012,159.758531 118.992157,159.808433 C118.092669,160.458156 117.053756,161.065961 115.857022,161.63085 C110.817374,164.023148 102.996964,165.603042 90.8640485,164.779661 C90.3838054,164.747724 90.1291604,162.978202 90.0381466,160.301464 C89.7554228,151.9399 91.1032018,134.722745 92.1343689,134.128912 C93.069681,133.590969 108.695009,134.589008 118.056845,139.953462 C122.294796,142.381689 125.247904,145.702162 124.983577,150.185349 Z" id="Fill-507" fill="#FFBE98"></path>
                    <path d="M119,160 C118.099084,160.625748 117.058521,161.211126 115.859885,161.755171 C110.812232,164.059193 102.979401,165.58079 90.8272138,164.787791 C90.3462079,164.757032 90.0911584,163.052806 90,160.474838 C90,160.474838 91.2403357,162.678895 95.4772606,162.662554 C99.5803571,162.653903 116.038323,161.663856 119,160" id="Fill-508" fill="#FFAB7A"></path>
                    <path d="M117.863601,140 C122.219504,142.464365 125.254804,145.834254 124.98312,150.384162 C124.98312,150.384162 125.084628,157.567587 115.602552,162 C115.602552,162 120.561534,153.44512 112,150.619153 C112,150.619153 120.507795,148.381676 117.863601,140" id="Fill-509" fill="#D18C64"></path>
                    <path d="M96.4580116,147.449509 C92.6909208,146.208973 94.0011296,137.129795 95.4816079,136.15675 C96.9630481,135.183704 114.883665,138.824872 113.965941,144.745527 C113.048218,150.666182 101.821018,149.216305 96.4580116,147.449509" id="Fill-510" fill="#FFF3EC"></path>
                    <path d="M125.146948,149.096714 C125.146948,149.096714 126.900723,149.8206 130.074997,150.734931 C131.661654,151.187609 133.604637,151.683162 135.852081,152.085985 C138.095683,152.462885 140.669679,152.791924 143.410792,152.571567 C144.774626,152.456902 146.181679,152.198656 147.502293,151.658234 C148.815223,151.109836 150.001374,150.230404 150.822555,149.020936 C151.039616,148.727792 151.182722,148.377813 151.372891,148.060739 C151.54289,147.677857 151.713849,147.292981 151.885769,146.906111 C152.214241,146.142341 152.537912,145.346665 152.862543,144.534038 C153.492595,142.893827 154.135134,141.217721 154.789198,139.513697 C157.3776,132.661706 160.189786,125.306184 163.829877,118.272722 C165.649923,114.755991 167.682227,111.322019 170.107353,108.163243 C172.518073,105.022414 175.448394,102.134846 179.115377,100.400909 C180.054694,100.023013 180.990168,99.65409 181.979428,99.4476927 C182.461572,99.3071032 182.960043,99.2412954 183.457554,99.191441 C183.934896,99.1375982 184.491955,99.0747816 184.886698,99.0777729 C185.739575,99.0518486 186.582846,99.0259243 187.416513,99 C188.264587,99.0009971 189.103057,99.0009971 189.930001,99.0019942 C193.227213,99.0239301 196.319849,99.1555458 199.173335,99.3888645 C210.589198,100.265305 218,102.225581 218,102.225581 L217.950057,102.620428 C217.950057,102.620428 216.056057,102.599489 212.742518,102.562597 C211.091511,102.553623 209.085139,102.541658 206.78487,102.528696 C204.488444,102.509751 201.899081,102.549635 199.083053,102.577553 C197.674078,102.596498 196.208437,102.629402 194.693814,102.687233 C193.181111,102.71914 191.609821,102.776971 190.015481,102.858732 C188.407694,102.954453 186.755727,103.054162 185.067262,103.155865 C184.607209,103.170821 184.315233,103.233637 183.936817,103.286483 C183.57665,103.331352 183.213601,103.368244 182.858236,103.484904 C182.13406,103.632473 181.429092,103.926614 180.71452,104.209787 C177.886006,105.508993 175.218847,107.820244 172.85711,110.5752 C170.477125,113.327164 168.412166,116.530809 166.506641,119.840145 C162.734008,126.505682 159.679789,133.661785 156.845513,140.400109 C156.125178,142.08818 155.416369,143.748332 154.722927,145.371592 C154.36468,146.181228 154.001632,146.986875 153.620335,147.788534 C153.425364,148.178396 153.232314,148.566263 153.039265,148.950142 C152.784746,149.351969 152.573448,149.776729 152.281473,150.140666 C151.154869,151.645272 149.598947,152.647346 148.053589,153.198736 C146.495745,153.746138 144.947506,153.939573 143.484746,153.990424 C140.551544,154.07418 137.93721,153.59458 135.661913,153.096036 C133.388537,152.573562 131.450356,151.966335 129.876185,151.408962 C126.725922,150.298206 125,149.46464 125,149.46464 L125.146948,149.096714" id="Fill-511" fill="#734224"></path>
                    <path d="M146.937224,109.169776 C148.592176,108.956156 151.539559,108.791363 154.541698,109.668223 C157.919577,110.652911 161.368261,112.964079 163.130837,118.018742 C163.490527,119.045136 163.782245,120.186479 163.984275,121.45396 C164.084347,122.082613 163.696334,122.682785 163.11762,122.788578 C161.03406,123.179198 156.111685,123.493525 151.55372,119.232309 C150.515245,118.267966 149.493762,117.062537 148.5327,115.566178 C147.661324,114.215284 146.837152,112.631442 146.087562,110.764807 C145.806229,110.061895 146.232948,109.263362 146.937224,109.169776" id="Fill-512" fill="#4E7551"></path>
                    <path d="M146.932344,109.162677 C148.578682,108.957989 151.510721,108.800087 154.497231,109.640281 C154.497231,109.640281 158.086678,113.538119 157.998398,116.847235 C157.910117,120.155377 148.519515,115.291609 148.519515,115.291609 C147.652676,113.997204 146.832794,112.479591 146.087106,110.691011 C145.807238,110.017491 146.231735,109.252349 146.932344,109.162677" id="Fill-513" fill="#4E7551"></path>
                    <path d="M164.081,117.99344 C164.461315,119.025048 164.769759,120.172188 164.983374,121.446107 C165.089183,122.077954 164.678923,122.681174 164.067025,122.787504 C161.863996,123.180108 156.659376,123.496031 151.840062,119.213171 C152.141519,119.0046 161.161263,123.907039 162.56074,121.656722 C163.971198,119.398226 150.834874,113.941643 151.001574,113.074643 C151.17027,112.193328 162.804301,119.436056 164.081,117.99344" id="Fill-514" fill="#4E7551"></path>
                    <path d="M154.688516,172.761372 C153.405592,171.671847 151.259376,169.581677 149.74353,166.727541 C148.038203,163.516887 147.135166,159.33355 149.163072,154.506085 C149.57346,153.524414 150.10493,152.513783 150.779666,151.483178 C151.113337,150.97187 151.767739,150.845042 152.236358,151.205554 C153.929669,152.491812 157.53997,155.955124 157.956828,162.323503 C158.056652,163.769545 157.989178,165.370378 157.693403,167.127998 C157.42813,168.716847 156.981695,170.433524 156.301413,172.29001 C156.044459,172.988065 155.235699,173.222748 154.688516,172.761372" id="Fill-515" fill="#4E7551"></path>
                    <path d="M154.976166,172.768982 C153.685153,171.714199 151.525404,169.69068 150,166.927557 C150,166.927557 150.117196,161.581135 152.411813,159.324617 C154.705499,157.068098 158,167.315245 158,167.315245 C157.733054,168.853429 157.283804,170.515363 156.599233,172.31265 C156.340658,172.988446 155.526799,173.215645 154.976166,172.768982" id="Fill-516" fill="#4E7551"></path>
                    <path d="M149,154.469395 C149.420013,153.497997 149.963948,152.497941 150.654509,151.478121 C150.996006,150.972164 151.665756,150.846663 152.145365,151.203403 C153.87839,152.476201 157.573366,155.90327 158,162.205006 C157.662287,162.135832 154.824364,152.47126 152.415913,153.03058 C149.992327,153.585947 155.225457,166.510583 154.546248,166.986894 C153.856632,167.471111 150.799243,154.376505 149,154.469395" id="Fill-517" fill="#4E7551"></path>
                    <path d="M283.83478,37.0064245 C282.601286,37.9021063 281.491917,39.0897287 279.962655,39.2078952 C276.459028,39.4849409 270.900547,34.4444965 266.065482,39.5921844 C262.004261,43.9166791 261.147991,45.8887679 262.099295,47.4815324 C260.585549,46.2561761 257.877099,44.9901071 256.394384,48.7694474 C253.923517,55.0620589 260.039592,57.7739292 259.246355,60.4361497 C258.454087,63.0983702 254.140736,61.5800803 254.001095,66.9621151 C253.994307,67.1805741 254.01952,67.5440104 254.064128,67.5440104 L254.067037,67.5440104 C255.213256,73.5019824 270.909274,70.7325184 276.766432,66.8945914 L285.43968,61.6724289 C285.43968,61.6724289 292.32184,49.2977209 291.988253,41.9982121 C291.942676,40.9237911 291.738063,39.9665436 291.330778,39.1701613 C291.084467,38.6855796 290.766396,38.2685216 290.363959,37.9179942 C287.216221,35.17832 285.422225,35.8505779 283.83478,37.0064245" id="Fill-518" fill="#FFBE98"></path>
                    <path d="M274.989469,66.0064376 C273.37285,66.0597079 271.434274,66.4738089 269.977659,67.8598411 C269.977659,67.8598411 260.533563,69.6499234 259.32866,78.3128764 C258.808649,82.0659181 258.89548,84.1484843 259.662325,85.649098 C260.659419,87.6110523 262.815561,88.5819784 266.272217,90.9922071 C272.366976,95.2477986 278.161241,101.515599 283.759404,97.9394552 C284.009166,97.7776342 284.235512,97.5977214 284.436491,97.3936861 C288.765361,93.0777887 282.592551,79.4808021 283.888188,72.4893296 C283.888188,72.4893296 279.132968,69.5896175 278.087093,67.5703725 C277.835381,67.0788788 277.800258,66.6386452 278.102703,66.3049521 C278.102703,66.3049521 276.730968,65.9481418 274.989469,66.0064376" id="Fill-519" fill="#FFBE98"></path>
                    <path d="M280.091963,39.2349517 C278.821127,39.3357614 277.281312,38.7359435 275.604082,38.1693929 C272.635551,37.1703684 269.231389,36.2832428 266.125445,39.6250854 C265.755109,40.0232838 265.413036,40.4003122 265.091429,40.761211 C261.902646,44.3762479 261.269178,46.1646125 262.140441,47.6344184 C260.619142,46.3904263 257.897176,45.1040942 256.406089,48.9419206 C253.922893,55.3302332 260.07046,58.0833469 259.273265,60.7860557 C258.476069,63.4877565 254.141195,61.9463757 254.000858,67.4102631 C253.99501,67.6320445 254.019375,68 254.064205,68 L254.068103,68 C254.068103,68 257.139938,67.9385061 258.517001,66.9465383 C259.896988,65.9565868 260.548973,62.7175702 261.890951,62.6782544 C263.23293,62.6389386 269.526683,64.4817404 270.516843,63.6399792 C271.504079,62.7982179 263.331361,62.0401288 263.824492,60.4856427 C264.317623,58.9271243 273.50389,63.2770642 273.680287,62.1711814 C273.856684,61.0663068 268.51021,57.8837436 268.365974,55.7133101 C268.225636,53.5428767 262.380184,49.7715847 262.875264,48.531625 L262.944458,48.3925076 C263.534071,47.4519528 265.410112,49.267536 266.426586,49.1384996 C267.486915,49.0054307 266.199512,47.1424669 268.829868,46.7099932 C271.460224,46.2775194 276.117679,51.4853501 277.598046,50.6022568 C279.081337,49.7201717 277.234533,46.252317 279.071591,46.0627947 C280.914497,45.8702481 281.868598,49.0608761 283.610149,48.8552242 C285.3517,48.6485643 284.037984,44.6393613 284.452175,43.5748106 C284.86734,42.5102598 286.678086,41.5555917 285.727883,40.0081623 C284.782553,38.4577087 283.983408,37 283.983408,37 C282.743759,37.9093038 281.629829,39.1149881 280.091963,39.2349517" id="Fill-520" fill="#FFAB7A"></path>
                    <path d="M290.350243,39 C289.677486,39.8389063 288.919436,41.2484291 287.649631,42.3826544 C285.716652,44.1205319 284.622224,52.3213916 285.119604,52.9070243 C285.616026,53.4956602 286.838872,51.2001803 287.37842,48.5383046 C287.734924,46.7844098 289.698569,43.7361166 291,41.8560855 C290.954958,40.7729153 290.752747,39.8018663 290.350243,39" id="Fill-521" fill="#D18C64"></path>
                    <path d="M275.284824,65.7758632 C275.284824,65.7758632 271.974775,63.3923278 268.360462,64.5706489 C264.746148,65.74897 263.397749,67.5657558 262.0588,67.0557809 C260.71985,66.5448098 257.368224,69.0657994 257.028999,67.4541988 C256.690718,65.8435942 259.38657,66.8127459 261.231051,65.5746621 C263.075532,64.3365783 265.06931,64.8087036 266.488578,64.2449422 C267.90879,63.6811808 267.825638,62.7020687 270.130294,63.087538 C272.43495,63.4720114 274.371088,63.2220041 275.656177,63.4092605 C276.940322,63.596517 278.046821,65.4133028 275.284824,65.7758632" id="Fill-522" fill="#D18C64"></path>
                    <path d="M279.882447,63 C279.882447,63 277.225743,59.593983 276.935211,58.2658506 C276.644678,56.9377182 276.66754,56.0176142 276.431304,55.225019 C276.19602,54.4334439 272.202866,53.3440081 273.143048,52.2341709 C274.08323,51.1233136 275.424442,54.2641122 277.378153,55.3912906 C279.331865,56.5194891 282,60.8639714 282,60.8639714 L279.882447,63" id="Fill-523" fill="#D18C64"></path>
                    <path d="M277,66 C275.43185,66.053161 271.061473,67.1656031 269.64853,68.5231764 C269.64853,68.5231764 260.487584,70.2765034 259.318806,78.7615824 C258.814386,82.437564 258.898614,84.4773695 259.642468,85.9471714 C259.642468,85.9471714 262.425767,86.7504925 262.57151,82.0920177 C262.720091,77.4345275 261.777498,77.3990868 263.215047,75.0580359 C264.65165,72.7179695 267.466181,70.7244337 270.04317,70.4940696 C272.620159,70.2637054 274.712603,71.0630887 275.262449,69.8384178 C275.525542,69.2516784 276.885488,66.9716641 277,66" id="Fill-524" fill="#FFAB7A"></path>
                    <path d="M274.843889,69.2446773 C274.843889,69.2446773 270.977675,71.2791434 269.779336,73.0137495 C268.581935,74.7493969 265.911244,78.1634267 266.002269,78.899541 C266.093294,79.6356554 270.844422,76.1216723 272.065282,75.0190625 C273.286143,73.9164528 276,69 276,69 L274.843889,69.2446773" id="Fill-525" fill="#D18C64"></path>
                    <path d="M276.35457,68.0717567 C273.571855,69.2277313 273.640777,79.8473655 274.600895,83.6764053 C275.557184,87.5054451 277.89095,89.4260173 278.27002,92.901002 C278.576339,95.7415121 282.169841,97.4643783 283.465952,98 C287.713254,93.6686257 281.656757,80.0228799 282.92798,73.0063359 C282.92798,73.0063359 278.262362,70.0962253 277.236194,68.0697393 C276.890628,67.9799646 276.592924,67.9729037 276.35457,68.0717567" id="Fill-526" fill="#D18C64"></path>
                    <path d="M294.768633,69.1315489 C292.196295,68.9062476 289.185657,68.9600357 285.668538,69.3730882 L282.887764,74.1145655 L281.911815,75.7759093 C281.911815,75.7759093 278.741441,83.8766095 284.224094,89.292976 C285.030567,90.0906646 286.025023,90.8294907 287.243498,91.4729189 C287.732447,91.7327259 288.252564,91.9783246 288.816511,92.2046409 C299.870452,96.6660137 296.726376,91.8392873 300.517189,88.2689712 C300.675951,88.1177554 300.845427,87.971614 301.029513,87.8275023 C305.387196,84.4195655 307.244616,87.4408365 308.504974,83.8735649 C308.571206,83.6837841 308.637438,83.4737058 308.70367,83.2413003 C309.230605,81.3465362 309.204307,78.1679602 307.370262,75.2928307 C305.496284,72.3527495 301.741508,69.7333674 294.768633,69.1315489" id="Fill-527" fill="#FFBE98"></path>
                    <path d="M294.879173,69.1315489 C292.286184,68.9062476 289.251375,68.9600357 285.706019,69.3730882 L282.90292,74.1145655 L281.919135,75.7759093 C281.919135,75.7759093 278.723308,83.8766095 284.249979,89.292976 C285.062926,90.0906646 286.065366,90.8294907 287.293624,91.4729189 C287.786498,91.7327259 288.31079,91.9783246 288.879265,92.2046409 C300.021952,96.6660137 296.852633,91.8392873 300.673881,88.2689712 C301.091155,87.0866465 301.315992,85.5166411 300.021952,84.7057591 C297.786345,83.3103115 294.880155,84.5900638 293.440805,83.5833118 C292.005383,82.5755449 292.970513,81.913849 291.769746,80.9811826 C290.567015,80.0444567 288.334354,80.1743602 288.509118,76.7745424 C288.652464,73.9795877 293.713752,70.8385619 294.879173,69.1315489" id="Fill-528" fill="#D18C64"></path>
                    <path d="M283.483193,62.6309594 C283.416646,62.7708538 283.351063,62.9117334 283.287408,63.0565536 L283.749384,64.0299034 L283.336596,64.0574882 L283,64.2377747 L283,64.2417154 L285.144954,67.8829105 L285.639721,68.4818949 C285.639721,68.4818949 293.447006,73.4796717 298.057114,72.9624564 C302.667222,72.4442561 311.061862,73.481642 311.96363,67.9006436 C312.143019,66.7913401 311.600994,65.8268568 311.591349,64.9855201 L310.969274,64.744153 L310.969274,64.7372568 L311.607745,64.6436655 C311.427391,60.3158056 309.211068,59.4330916 307.394029,58.6676131 L307.439359,58.615399 C306.754594,58.2627075 307.109514,57.6666785 307.414283,56.7859349 C307.897476,55.3840354 308.075901,53.2590197 307.111443,50.2463643 L307.111443,50.2424236 C307.111443,49.8966283 306.558809,49.534085 306.275258,49.1607049 C301.973777,43.468382 295.187852,37.0105806 283.483193,62.6309594" id="Fill-529" fill="#FFBE98"></path>
                    <path d="M283,63.3326665 C283.036246,63.9184311 283.124413,64.4050349 283.270378,64.7842996 L283.281154,64.8129233 L283.473162,65 C283.629903,64.704562 293.285154,47.154113 307,50.4816242 L307,50.4775351 C307,50.1187159 306.438671,49.742518 306.150659,49.3550751 C301.781501,43.4483594 294.888812,36.7473347 283,63.3326665" id="Fill-530" fill="#D18C64"></path>
                    <path d="M311.999298,65 C311.915401,66.4927889 310.913512,68.3848349 308.644385,69.6071911 C306.979123,70.5040445 303.969553,69.8156702 299.475198,71.1570167 C295.86274,72.2397312 287.955914,69.1449969 285,67.8921556 L285.286811,68.4900579 C285.286811,68.4900579 293.077547,73.478805 297.740672,72.9625243 C302.402821,72.4452601 310.841322,73.4807718 311.75346,67.9098567 C311.934912,66.8025574 312.008078,65.8398167 311.999298,65" id="Fill-531" fill="#FFAB7A"></path>
                    <path d="M306.808102,57.0002994 C302.477079,56.9717089 302,59 302,59 C303.516525,57.2028835 306.413646,58.2713509 307,58.5172292 C306.368337,58.2247893 306.527363,57.7305822 306.808102,57.0002994" id="Fill-532" fill="#FFAB7A"></path>
                    <path d="M284.392394,66.9520724 C284.392394,66.9520724 294.568918,71.3237417 299.26431,69.595828 C303.959703,67.8688663 306.395973,66.3713411 305.947387,64.626291 C305.498801,62.880289 301.229137,66.3456366 300.513875,65.6325747 C299.798614,64.9185607 302.368222,63.7932748 301.631055,62.4804412 C300.89484,61.1676076 287.702026,62.5965875 284,66.1400006 L284.392394,66.9520724" id="Fill-533" fill="#D18C64"></path>
                    <path d="M282.814141,74 L281.876254,75.6270463 C281.876254,75.6270463 278.829525,83.5605122 284.098353,88.8650608 L287,91 C285.550113,89.1791394 285.554793,88.0898036 283.603202,83.4601263 C282.495896,80.8371726 282.555801,76.9062208 282.814141,74" id="Fill-534" fill="#FFAB7A"></path>
                    <path d="M307.448294,75.0150155 C307.448294,75.0150155 302.250407,74.628939 302.009292,77.7721376 C301.764467,80.9193062 306.436538,79.0951195 306.719384,80.2622814 C307.005013,81.4314282 302.633409,79.6638132 303.132332,82.4536873 C303.632183,85.2435614 308.528676,83.4064725 308.528676,83.4064725 C308.591737,83.2208779 308.654798,83.0154336 308.717858,82.7881546 C309.219564,80.9351859 309.194525,77.8267242 307.448294,75.0150155" id="Fill-535" fill="#FFAB7A"></path>
                    <path d="M283.557087,61.0879038 C280.016029,60.5029401 276.672236,62.8991536 276.088215,66.4400304 C275.909412,67.5234765 276.007559,68.5865169 276.336011,69.556274 C276.416666,69.796284 276.509954,70.0304639 276.620734,70.2597852 C277.494337,72.1303087 279.245431,73.5499632 281.439643,73.9124075 C284.782465,74.4633617 287.953286,72.3606018 288.787048,69.1413579 C288.837579,68.9489612 288.880336,68.7555928 288.913375,68.5573658 C288.928923,68.4611675 288.941556,68.3649691 288.953217,68.2677991 C289.366211,64.8376962 287.001942,61.6563486 283.557087,61.0879038" id="Fill-536" fill="#3A3C54"></path>
                    <path d="M283.741528,64.0863077 C280.093038,63.5114191 276.643792,65.8692264 276.042052,69.3491171 C276.025031,69.4436586 276.013016,69.5382 276,69.6327415 C276.758934,71.8071957 278.722351,73.5146722 281.258472,73.9138474 C284.906962,74.4877811 288.356208,72.1337936 288.958949,68.651038 C288.974969,68.5564965 288.987985,68.461955 289,68.3664586 C288.241066,66.1929594 286.277649,64.4854828 283.741528,64.0863077" id="Fill-537" fill="#3A3C54"></path>
                    <path d="M284.246965,65.0919174 C280.950799,64.5141933 277.827157,66.7172751 277,70.0849593 C277.861661,72.0429152 279.588818,73.5289275 281.753035,73.9083133 C285.05016,74.4850203 288.177636,72.2839727 289,68.9142542 C288.138339,66.9573154 286.412141,65.4713031 284.246965,65.0919174" id="Fill-538" fill="#364B7F"></path>
                    <path d="M266.049354,39.1757111 C265.673525,39.5423791 265.326378,39.8895533 265,40.2218751 C266.132432,41.3840733 267.246072,42.2325151 267.691133,41.9428938 C268.738509,41.2615412 268.263777,39.7382448 269.524782,38.9018705 C270.785787,38.0654963 272.723284,40.7769826 275.104853,40.4493021 C276.258054,40.2896391 276.121569,39.0624618 275.668596,37.8352845 C272.656031,36.9153657 269.201372,36.0984852 266.049354,39.1757111" id="Fill-539" fill="#FFAB7A"></path>
                    <path d="M231.96589,49.5025173 C230.14926,50.8347217 228.514775,52.6033552 226.260613,52.7787239 C221.096951,53.1902426 212.905253,45.6902403 205.780403,53.3496687 C199.795644,59.7845052 198.533159,62.7199385 199.936349,65.0894091 C197.705316,63.265973 193.713549,61.3807592 191.527811,67.0045153 C187.886842,76.3688067 196.900602,80.4032838 195.731598,84.3640263 C194.562595,88.3257653 188.2068,85.8835565 188.001526,93.8927259 C187.991889,94.218553 188.02851,94.5762653 188.094044,94.5762653 L188.098863,94.5762653 C189.78828,101.551158 212.918745,99.5035287 221.550868,93.7930846 L234.332809,86.1127315 C234.332809,86.1127315 244.475095,67.7458468 243.982629,56.8839463 C243.915168,55.2856996 243.613521,53.8837462 243.013118,52.7000073 C242.650756,51.9776077 242.182383,51.3697956 241.58969,50.8466787 C236.949334,46.7713487 234.306788,47.7837045 231.96589,49.5025173" id="Fill-584" fill="#92B7E8"></path>
                    <path d="M218.687996,93.0097434 C216.293115,93.0882461 213.421597,93.7031837 211.263572,95.7613629 C211.263572,95.7613629 197.272477,98.4203894 195.487769,111.283757 C194.715793,116.855434 194.84543,119.948238 195.981951,122.176507 C197.458648,125.089157 200.652797,126.530386 205.772989,130.109303 C214.802772,136.427762 223.386134,145.735361 231.68098,140.425359 C232.049423,140.185826 232.385701,139.918111 232.683964,139.615172 C239.096631,133.206133 229.951831,113.015848 231.87105,102.635379 C231.87105,102.635379 224.826766,98.3308158 223.276966,95.3326175 C222.904624,94.6019387 222.851989,93.9487562 223.300359,93.4535855 C223.300359,93.4535855 221.269048,92.9221828 218.687996,93.0097434" id="Fill-585" fill="#7896BE"></path>
                    <path d="M226.323107,52.2704345 C224.455245,52.4186836 222.194504,51.5411286 219.73105,50.7113317 C215.370775,49.249735 210.370503,47.9503169 205.809445,52.8415418 C205.265014,53.4245885 204.763056,53.9757965 204.291023,54.5051154 C199.606406,59.7953194 198.676818,62.4130599 199.955845,64.5631692 C197.721168,62.7433868 193.722882,60.8609219 191.533574,66.4764778 C187.886657,75.8271148 196.91514,79.8557091 195.744227,83.8106764 C194.573314,87.7656436 188.207138,85.3269959 188.001529,93.3234919 C187.991875,93.6488439 188.028557,94.0050397 188.094198,94.0050397 L188.099024,95 C188.099024,95 192.611817,94.5940562 194.634128,93.1434041 C196.661265,91.6937469 197.618846,86.7965522 199.58903,86.7388445 C201.56018,86.6801419 210.80489,89.2988774 212.259602,88.0671166 C213.709488,86.8353557 201.704975,85.6871715 202.428953,83.4116973 C203.154861,81.1312482 216.645941,87.4761101 216.904642,85.8583047 C217.164309,84.2414942 209.311566,79.5741354 209.100164,76.3972271 C208.894555,73.2213138 200.309146,67.6962992 201.035055,65.8814916 L201.137377,65.6745398 C202.002289,64.2985097 204.759195,66.9550537 206.250589,66.7660113 C207.808588,66.5709991 205.917559,63.8448078 209.780703,63.2110181 C213.644813,62.5782233 220.484952,70.2006143 222.658815,68.9081608 C224.83847,67.6167024 222.125003,62.5414098 224.824956,62.2638159 C227.529736,61.9822421 228.932322,66.6515909 231.489411,66.3501179 C234.047464,66.0486449 232.117823,60.181364 232.726929,58.6232561 C233.337001,57.0651483 235.995447,55.667229 234.600583,53.4026994 C233.211512,51.1331949 232.037703,49 232.037703,49 C230.218106,50.3302619 228.580952,52.0953215 226.323107,52.2704345" id="Fill-586" fill="#7896BE"></path>
                    <path d="M243.0248,52 C242.016642,53.2577515 240.878586,55.3732449 238.974717,57.0745513 C236.074323,59.6811956 234.433157,71.9822481 235.179582,72.8602437 C235.925038,73.7443154 237.759111,70.3001828 238.567576,66.3071763 C239.102676,63.6762275 242.048632,59.1039667 244,56.2836463 C243.932143,54.6593039 243.628726,53.2030666 243.0248,52" id="Fill-587" fill="#92B7E8"></path>
                    <path d="M219.427896,92.886542 C219.427896,92.886542 214.461286,89.5491363 209.040645,91.1995018 C203.620005,92.8489268 201.596464,95.3926525 199.587262,94.6779643 C197.579016,93.9623358 192.552186,97.4915788 192.043673,95.2365496 C191.535159,92.9805799 195.579372,94.3384875 198.346565,92.6044283 C201.112803,90.8713094 204.10271,91.532396 206.23235,90.7434179 C208.36199,89.9544397 208.237729,88.5833669 211.695048,89.1222042 C215.152367,89.6610414 218.056248,89.31028 219.983247,89.5726458 C221.911202,89.8350116 223.569606,92.3787373 219.427896,92.886542" id="Fill-588" fill="#92B7E8"></path>
                    <path d="M225.940855,88 C225.940855,88 222.103237,83.0459277 221.683846,81.1147301 C221.264454,79.1825318 221.296929,77.8447022 220.956406,76.6919873 C220.61681,75.5392724 214.848321,73.9552901 216.206704,72.3402886 C217.565087,70.725287 219.501525,75.2941204 222.323139,76.9341375 C225.145681,78.5741545 229,84.8930732 229,84.8930732 L225.940855,88" id="Fill-589" fill="#92B7E8"></path>
                    <path d="M222,92 C219.647922,92.0776778 213.092354,93.7467554 210.972899,95.783309 C210.972899,95.783309 197.231862,98.4143967 195.479052,111.142607 C194.720873,116.655742 194.848193,119.716049 195.964401,121.920905 C195.964401,121.920905 200.138215,123.124911 200.356478,116.13789 C200.580486,109.151864 199.166559,109.097091 201.322391,105.58665 C203.478223,102.075214 207.698944,99.0856129 211.564508,98.7400461 C215.430073,98.3954752 218.568091,99.5945023 219.393281,97.7561268 C219.788645,96.875778 221.827687,93.4559615 222,92" id="Fill-590" fill="#92B7E8"></path>
                    <path d="M219.266521,98.3430403 C219.266521,98.3430403 213.466106,101.19057 211.669971,103.620357 C209.872887,106.049161 205.866708,110.829118 206.003412,111.859222 C206.140116,112.890308 213.266747,107.970776 215.098007,106.427586 C216.929267,104.883413 221,98 221,98 L219.266521,98.3430403" id="Fill-591" fill="#92B7E8"></path>
                    <path d="M221.425581,95.1055181 C217.3778,96.8005978 217.477328,112.376574 218.873535,117.992585 C220.265048,123.607599 223.659325,126.424085 224.211423,131.520299 C224.656481,135.686663 229.883574,138.213818 231.76897,139 C237.946272,132.646694 229.137115,112.631983 230.985892,102.341782 C230.985892,102.341782 224.200155,98.0746512 222.707237,95.102525 C222.204903,94.9698319 221.77205,94.9608527 221.425581,95.1055181" id="Fill-592" fill="#92B7E8"></path>
                    <path d="M249.160903,96.194493 C245.395457,95.8612437 240.986566,95.9412641 235.836128,96.5510395 L231.764829,103.569534 L230.334632,106.027881 C230.334632,106.027881 225.692986,118.016754 233.722092,126.032971 C234.90222,127.213018 236.358385,128.306967 238.141562,129.260121 C238.858103,129.644016 239.62081,130.007653 240.446035,130.342928 C256.632165,136.946127 252.028029,129.801018 257.578576,124.517649 C257.812293,124.292781 258.059476,124.07703 258.32878,123.864318 C264.70936,118.821009 267.430292,123.29202 269.275025,118.012702 C269.373128,117.731112 269.469308,117.42116 269.56645,117.076768 C270.337813,114.273017 270.29838,109.569035 267.613996,105.312762 C264.869019,100.961275 259.372333,97.0848462 249.160903,96.194493" id="Fill-593" fill="#7896BE"></path>
                    <path d="M249.124589,96.194493 C245.365925,95.8612437 240.964975,95.9412641 235.823814,96.5510395 L231.759849,103.569534 L230.332228,106.027881 C230.332228,106.027881 225.698943,118.016754 233.713586,126.032971 C234.891589,127.213018 236.345131,128.306967 238.125096,129.260121 C238.840346,129.644016 239.60168,130.007653 240.425417,130.342928 C256.582393,136.946127 251.98655,129.801018 257.527099,124.517649 C258.131941,122.76733 258.458364,120.444714 256.582393,119.244408 C253.340245,117.179073 249.126509,119.073225 247.040282,117.582213 C244.958856,116.092214 246.357674,115.111711 244.617072,113.73212 C242.872629,112.345438 239.635282,112.536879 239.88778,107.505725 C240.097074,103.368977 247.43583,98.7207054 249.124589,96.194493" id="Fill-594" fill="#92B7E8"></path>
                    <path d="M231.289647,88.2681957 C231.192133,88.4808886 231.093653,88.6945896 231,88.9133307 L231.685498,90.3900853 L231.574467,90.4314143 L231.577363,90.7066047 L231.577363,90.7116448 L234.25853,96.2366221 L234.74224,97.1458593 C234.74224,97.1458593 246.206472,104.728213 253.049867,103.942962 C259.892297,103.157712 272.291123,104.731237 273.630258,96.2628307 C273.896734,94.5804393 274.011627,93.1167891 273.999076,91.8406312 C273.997145,91.7176523 273.999076,91.5936654 273.990386,91.4747187 L273.994248,91.4636304 L273.990386,91.3225071 C273.722946,84.7552335 269.957533,83.4155701 267.259954,82.254327 C267.259954,82.254327 267.201059,82.2220702 267.090027,82.1746931 C266.0724,81.6404406 266.465355,80.7362435 266.91817,79.3996042 C267.636495,77.2736825 268.265994,74.048007 266.335014,69.4766201 L266.335014,69.47158 C265.369524,68.9474077 265.529795,68.3970268 265.107876,67.8305176 C258.723088,59.1927635 248.66461,49.3957823 231.289647,88.2681957" id="Fill-595" fill="#7896BE"></path>
                    <path d="M232,87.6177024 C232.053033,88.4538209 232.182241,89.1500939 232.395339,89.6907642 L232.409802,89.7311421 L232.675933,90 C232.904458,89.577509 245.78671,64.5057716 267,69.2585489 L267,69.2536248 C266.03576,68.7415145 266.195823,68.2037987 265.77445,67.6503257 C259.397928,59.2113392 249.352471,49.6398012 232,87.6177024" id="Fill-596" fill="#92B7E8"></path>
                    <path d="M274.999009,92 C274.875228,94.2393213 273.390823,97.0775192 270.028251,98.9109572 C267.561391,100.255943 263.103303,99.2233281 256.444436,101.236827 C251.092586,102.86036 239.379141,98.2175735 235,96.3383741 L235.424951,97.2356943 C235.424951,97.2356943 246.966857,104.718668 253.874261,103.94371 C260.782641,103.168752 273.28361,104.721653 274.634487,96.3642392 C274.903493,94.7038983 275.01168,93.2594317 274.999009,92" id="Fill-597" fill="#92B7E8"></path>
                    <path d="M266.694188,79.0006008 C259.76405,78.943325 259,83 259,83 C261.426363,79.4059379 266.061474,81.5427692 267,82.0329186 C265.989575,81.4491451 266.243619,80.461136 266.694188,79.0006008" id="Fill-598" fill="#92B7E8"></path>
                    <path d="M233.588669,93.4278577 C233.588669,93.4278577 248.853599,99.9846962 255.897395,97.3943164 C262.940228,94.8029738 266.593637,92.557336 265.921147,89.9390303 C265.248658,87.3207245 258.844594,92.5188174 257.771309,91.4479987 C256.698023,90.378143 260.552794,88.6910258 259.447715,86.7207964 C258.342636,84.7515301 238.553336,86.8941304 233,92.2097051 L233.588669,93.4278577" id="Fill-599" fill="#92B7E8"></path>
                    <path d="M231.722014,104 L230.313965,106.392264 C230.313965,106.392264 225.744197,118.058865 233.648967,125.859599 L238,129 C235.825904,126.320901 235.832532,124.720144 232.905646,117.911998 C231.244773,114.054016 231.333783,108.273942 231.722014,104" id="Fill-600" fill="#7896BE"></path>
                    <path d="M267.561934,106.021609 C267.561934,106.021609 259.393014,105.464745 259.014642,110.004735 C258.629389,114.549558 265.970803,111.915088 266.416005,113.602115 C266.865138,115.29011 259.995462,112.736849 260.779726,116.76638 C261.563989,120.79591 269.259206,118.143072 269.259206,118.143072 C269.35945,117.874307 269.457728,117.578473 269.55699,117.249769 C270.345184,114.573727 270.30489,110.08401 267.561934,106.021609" id="Fill-601" fill="#92B7E8"></path>
                    <path d="M221.128179,93.3678024 C221.01707,94.0745281 220.980672,94.776213 221.009408,95.4627753 C221.048679,96.3963388 221.215342,97.3036899 221.4912,98.1636571 C221.609013,98.5326466 221.744068,98.8915544 221.905943,99.2464295 C223.184655,102.122733 225.743038,104.307432 228.950833,104.864949 C233.835802,105.713827 238.470774,102.476599 239.689143,97.5254869 C239.762896,97.2300937 239.825156,96.931676 239.873048,96.6241847 C239.896036,96.4780004 239.915192,96.3297997 239.932433,96.1805909 C239.962126,95.9184672 239.982241,95.6593681 239.991819,95.4002689 C240.188176,90.428993 236.83,85.9668418 232.044647,85.1351033 C226.867538,84.2358175 221.981612,87.9206712 221.128179,93.3678024 Z" id="Fill-602" fill="#3A3C54"></path>
                    <path d="M205.526121,52.481123 C204.978929,53.068099 204.474427,53.6230217 204,54.1559078 C205.647396,56.0149992 207.266656,57.372256 207.913777,56.9084849 C209.437958,55.8186727 208.747177,53.3806187 210.581821,52.0433951 C212.416465,50.7051699 215.232949,55.0443852 218.698495,54.5195124 C220.375967,54.2640877 220.176106,52.3008232 219.518312,50.336557 C215.135929,48.8651102 210.110305,47.5569349 205.526121,52.481123" id="Fill-603" fill="#E9ECE8"></path>
                    <path d="M229.078212,94.8949802 C226.633465,94.277824 223.131244,93.2691066 221.136139,95.4137492 L221,95.5985979 C221.039308,96.5188662 221.206126,97.4132955 221.482238,98.2610156 C221.600161,98.6247502 221.735342,98.9785466 221.897366,99.3283679 C223.177263,102.163709 225.738016,104.317295 228.948784,104.866873 C233.838278,105.703661 238.477546,102.512536 239.697043,97.6319337 C239.770865,97.3407473 239.833182,97.0465795 239.881118,96.7434673 C239.904128,96.5993648 239.923302,96.4532747 239.940559,96.3061908 C239.97028,96.0478001 239.990413,95.7923909 240,95.5369817 C239.167827,94.8452897 237.847664,94.0691239 235.750933,93.3883638 C230.432889,91.6601278 234.818095,96.3459432 229.078212,94.8949802" id="Fill-604" fill="#364B7F"></path>
                    <path d="M162.123889,49.8713853 C161.084802,50.6488237 160.151628,51.6800374 158.862549,51.7827559 C155.913222,52.0224325 151.232083,47.6478308 147.160656,52.1150807 C143.740924,55.8683359 143.01862,57.5813187 143.821074,58.9629839 C142.546308,57.8995448 140.264897,56.8008591 139.015893,60.0808034 C136.935811,65.5430133 142.0864,67.8964765 141.418484,70.2066368 C140.750567,72.5178041 137.118057,71.2650406 137.000694,75.9367205 C136.995923,76.1260449 137.015961,76.5067077 137.054127,76.5067077 L137.05699,76.5067077 C138.021652,80.5348861 151.238762,79.2096154 156.171801,75.8783119 L163.475943,71.3123717 C163.475943,71.3123717 169.271548,60.5561284 168.990069,54.2198039 C168.951902,53.2882876 168.779198,52.4484124 168.435699,51.7575798 C168.228645,51.3366352 167.961478,50.971078 167.622749,50.6659435 C164.971121,48.2893182 163.460676,48.8683689 162.123889,49.8713853" id="Fill-605" fill="#92B7E8"></path>
                    <path d="M154.620834,75.0055187 C153.243817,75.0513558 151.59295,75.4021087 150.351886,76.5779283 C150.351886,76.5779283 142.306338,78.0975256 141.279887,85.4473945 C140.837066,88.6320719 140.91087,90.3997871 141.564419,91.6722631 C142.41413,93.3373432 144.250477,94.1604169 147.194846,96.2051472 C152.386337,99.8163084 157.322429,105.134401 162.091492,102.100188 C162.304162,101.963674 162.497411,101.810219 162.668324,101.637832 C166.355584,97.9748553 161.097087,86.437873 162.201226,80.5059629 C162.201226,80.5059629 158.150776,78.0467063 157.259307,76.3327998 C157.045666,75.9162807 157.014591,75.5426092 157.272903,75.2596153 C157.272903,75.2596153 156.104672,74.9556959 154.620834,75.0055187" id="Fill-606" fill="#7896BE"></path>
                    <path d="M159.015577,51.8649374 C157.94236,51.9494839 156.643355,51.4490869 155.228092,50.9762166 C152.723279,50.1425492 149.851439,49.4012932 147.231329,52.190343 C146.918107,52.5226302 146.629866,52.8372216 146.35892,53.1390328 C143.667711,56.1561614 143.133504,57.6485046 143.868519,58.8754112 C142.584886,57.8372594 140.287606,56.7637161 139.029915,59.9666503 C136.935364,65.2979922 142.121779,67.5954929 141.449217,69.8517034 C140.776655,72.1069308 137.118878,70.8839566 137.000699,75.4445495 C136.995895,75.629372 137.016072,76 137.054504,76 L137.057386,76 C137.057386,76 139.649633,75.8849775 140.811244,75.0572088 C141.975737,74.2304231 142.526277,71.4964268 143.658103,71.4630015 C144.789929,71.4295761 150.100287,72.9523954 150.936185,72.2494801 C151.769201,71.5475479 144.873518,70.9065679 145.289546,69.6088781 C145.705574,68.3082391 153.456371,71.9348886 153.605296,71.0117594 C153.75422,70.0896132 149.24325,67.4313155 149.121228,65.6204484 C149.00305,63.8085983 144.071248,60.6597346 144.488236,59.6245321 L144.546845,59.5085265 C145.044541,58.723031 146.627945,60.2389685 147.484981,60.1308277 C148.379488,60.0197376 147.29282,58.4654592 149.512275,58.1036791 C151.73173,57.742882 155.661414,62.0891595 156.910458,61.3528188 C158.162384,60.6164782 156.603962,57.7222369 158.154698,57.5639581 C159.708316,57.40273 160.51443,60.0659432 161.983498,59.893901 C163.452565,59.7218588 162.343799,56.3763754 162.694492,55.4876546 C163.044224,54.5989337 164.571901,53.801641 163.770591,52.5098499 C162.973125,51.2160926 162.298641,50 162.298641,50 C161.253287,50.7579688 160.312661,51.7656445 159.015577,51.8649374" id="Fill-607" fill="#7896BE"></path>
                    <path d="M168.457897,52 C167.898066,52.7188757 167.265457,53.9280307 166.208309,54.8995657 C164.596929,56.3894532 163.685337,63.417792 164.099612,63.9201027 C164.513887,64.4254212 165.53278,62.4572858 165.982511,60.1753316 C166.279221,58.6724101 167.915794,56.0595925 169,54.4473859 C168.962678,53.519966 168.793796,52.6877946 168.457897,52" id="Fill-608" fill="#92B7E8"></path>
                    <path d="M155.5422,75.2209326 C155.5422,75.2209326 152.727754,73.3138862 149.65617,74.2571665 C146.584585,75.1995156 145.437785,76.6530798 144.299432,76.244294 C143.162016,75.8355082 140.312847,77.8524333 140.02474,76.563687 C139.736632,75.2749408 142.028355,76.0506096 143.596524,75.0598394 C145.164693,74.0690691 146.858616,74.4471262 148.065478,73.9964375 C149.272339,73.5457488 149.201016,72.7616994 151.160524,73.0699183 C153.120031,73.3772061 154.765154,73.1770034 155.857523,73.3269226 C156.949893,73.477773 157.889292,74.930406 155.5422,75.2209326" id="Fill-609" fill="#92B7E8"></path>
                    <path d="M159.117378,72 C159.117378,72 156.755938,69.2137317 156.497733,68.1273114 C156.239528,67.0408911 156.259314,66.2870285 156.050573,65.6394674 C155.840844,64.9909311 152.291265,64.0995593 153.127216,63.1916084 C153.963168,62.2826822 155.154275,64.8524466 156.891471,65.7750262 C158.627678,66.6976057 161,70.2523652 161,70.2523652 L159.117378,72" id="Fill-610" fill="#92B7E8"></path>
                    <path d="M157,75 C155.606236,75.0449764 151.721781,75.9904594 150.465624,77.1442029 C150.465624,77.1442029 142.322226,78.6352697 141.283291,85.847144 C140.835085,88.9720289 140.909786,90.7065551 141.571283,91.9551402 C141.571283,91.9551402 144.045264,92.6376087 144.174025,88.6787043 C144.306718,84.7197998 143.468297,84.6885118 144.746078,82.699771 C146.023859,80.7100524 148.525362,79.0156139 150.816522,78.8200642 C153.106699,78.6245144 154.966362,79.3040498 155.454868,78.2627474 C155.689783,77.7640956 156.897778,75.8252199 157,75" id="Fill-611" fill="#92B7E8"></path>
                    <path d="M155.959762,78.1965801 C155.959762,78.1965801 152.479802,79.8237185 151.40206,81.2114573 C150.323332,82.6001693 147.920126,85.3308812 148.002043,85.9196484 C148.083959,86.5084156 152.360382,83.6979038 153.458849,82.8152397 C154.558304,81.9335487 157,78 157,78 L155.959762,78.1965801" id="Fill-612" fill="#92B7E8"></path>
                    <path d="M156.926453,77.0599212 C154.649537,78.0234236 154.706277,86.8727171 155.491484,90.0637665 C156.273945,93.2538337 158.182966,94.8547602 158.49412,97.7501784 C158.743959,100.117192 161.684365,101.553116 162.745034,102 C166.219893,98.3895668 161.264307,87.0180773 162.304843,81.1712578 C162.304843,81.1712578 158.487714,78.7472781 157.647598,77.0579569 C157.364814,76.9833124 157.121382,76.9774194 156.926453,77.0599212" id="Fill-613" fill="#92B7E8"></path>
                    <path d="M172.801891,77.1106428 C170.597254,76.9213802 168.016072,76.9662056 165.001766,77.3128549 L162.617636,81.2963345 L161.78163,82.6918971 C161.78163,82.6918971 159.063877,89.4963854 163.763852,94.0456604 C164.454509,94.7160485 165.307099,95.3366305 166.350887,95.8775231 C166.770354,96.0956731 167.217134,96.3018698 167.700009,96.4921285 C177.175073,100.239528 174.479757,96.1843277 177.729159,93.1860098 C177.865729,93.0585066 178.011079,92.935984 178.168135,92.8154536 C181.903338,89.9526078 183.496335,92.4907188 184.576217,89.4943931 C184.632796,89.334018 184.689375,89.1577049 184.745954,88.9624656 C185.197613,87.3716637 185.175176,84.7010689 183.60364,82.2854805 C181.996986,79.8161018 178.7788,77.6156751 172.801891,77.1106428" id="Fill-614" fill="#7896BE"></path>
                    <path d="M172.79725,77.1106428 C170.59348,76.9213802 168.013313,76.9662056 165.000193,77.3128549 L162.617,81.2963345 L161.781322,82.6918971 C161.781322,82.6918971 159.064639,89.4963854 163.762766,94.0456604 C164.45315,94.7160485 165.305405,95.3366305 166.348783,95.8775231 C166.768085,96.0956731 167.21469,96.3018698 167.697374,96.4921285 C177.168712,100.239528 174.474457,96.1843277 177.722581,93.1860098 C178.077524,92.1928792 178.268648,90.8740178 177.168712,90.1926725 C175.268204,89.0212366 172.798226,90.0960489 171.57445,89.2493479 C170.354575,88.4036429 171.174651,87.8478086 170.154676,87.063863 C169.131775,86.276929 167.234192,86.385506 167.38241,83.5306292 C167.505275,81.1827769 171.806529,78.5440579 172.79725,77.1106428" id="Fill-615" fill="#92B7E8"></path>
                    <path d="M162.169267,72.0611376 C162.111872,72.1822052 162.054477,72.3032727 162,72.4283097 L162.398848,73.2668513 L162.206234,73.2906679 L162.07977,73.4464679 L162.07977,73.4504374 L163.766606,76.5892624 L164.11195,77.105288 C164.11195,77.105288 170.810654,81.4141019 174.790381,80.9675412 C178.770108,80.521973 185.99607,81.4150942 186.77431,76.6041477 C186.928986,75.6475156 187.004864,74.8169129 186.997082,74.0915 L186.996109,73.883105 L187,73.8771509 L186.999027,73.7967699 C186.843379,70.0655078 184.654578,69.30437 183.085451,68.6444527 L182.987198,68.5997966 C182.395735,68.2961354 182.603915,67.7820945 182.867543,67.0229414 C183.284875,65.8142507 183.481381,63.9813674 182.50858,61.3843692 L182.50858,61.3813922 C182.50858,61.0836851 182.060119,60.7710926 181.814973,60.4485766 C178.101794,55.5413715 172.272773,49.9752414 162.169267,72.0611376" id="Fill-616" fill="#7896BE"></path>
                    <path d="M163,72.5707167 C163.029654,73.0723992 163.10331,73.4901267 163.225751,73.8146846 L163.23436,73.8392568 L163.366367,74 C163.497417,73.747111 171.52114,58.7038019 183,61.5552016 L183,61.5521301 C183,61.2449775 182.55902,60.9224673 182.317964,60.5897187 C178.66673,55.5268204 172.934953,49.7840911 163,72.5707167" id="Fill-617" fill="#92B7E8"></path>
                    <path d="M186.999365,74 C186.928481,75.3061448 186.074962,76.9622038 184.140709,78.0310506 C182.723033,78.8163463 180.158593,78.2130461 176.330868,79.3874704 C173.252763,80.3356572 166.517831,77.6268395 164,76.5308442 L164.244695,77.0537043 C164.244695,77.0537043 170.880583,81.4195865 174.852989,80.9671113 C178.824424,80.5156417 186.012818,81.420592 186.789626,76.5459267 C186.944017,75.5766244 187.007133,74.7350207 186.999365,74" id="Fill-618" fill="#92B7E8"></path>
                    <path d="M183.80897,67.0003004 C179.477575,66.9716651 179,69 179,69 C180.516819,67.2026566 183.413414,68.2717084 184,68.5170177 C183.368771,68.2249374 183.527616,67.730501 183.80897,67.0003004" id="Fill-619" fill="#E9ECE8"></path>
                    <path d="M163.339264,75.3329832 C163.339264,75.3329832 172.127453,79.1580302 176.183245,77.646504 C180.238075,76.1349778 182.341897,74.8249235 181.954578,73.2978246 C181.56726,71.7707257 177.879565,74.8025378 177.261585,74.178656 C176.643606,73.553801 178.862758,72.5698004 178.226518,71.4203397 C177.590277,70.2718523 166.19754,71.5215623 163,74.6224783 L163.339264,75.3329832" id="Fill-620" fill="#92B7E8"></path>
                    <path d="M162.511559,82 L161.730374,83.4356469 C161.730374,83.4356469 159.19084,90.4355786 163.582611,95.1155212 L166,97 C164.792217,95.3932231 164.795863,94.4320262 163.169686,90.3474518 C162.247214,88.0325864 162.296437,84.5638748 162.511559,82" id="Fill-621" fill="#92B7E8"></path>
                    <path d="M182.670504,83.0132541 C182.670504,83.0132541 178.215089,82.6710351 178.007968,85.4644492 C177.798061,88.2609557 181.803012,86.6395386 182.045427,87.6775342 C182.290628,88.7165606 178.542952,87.1456516 178.971125,89.6257086 C179.399298,92.1047348 183.596509,90.4730099 183.596509,90.4730099 C183.650379,90.3070543 183.704249,90.1246062 183.758119,89.9225733 C184.18815,88.2764174 184.166788,85.5128959 182.670504,83.0132541" id="Fill-622" fill="#92B7E8"></path>
                    <path d="M162.394776,71.0743394 C159.396998,70.5795671 156.569287,72.6066925 156.074461,75.6022266 C156.010086,75.9913194 155.988948,76.3775301 156.005282,76.7550942 C156.028342,77.2681202 156.124424,77.7676962 156.284882,78.2403718 C156.353101,78.4430844 156.430928,78.6409933 156.525089,78.8360201 C157.264925,80.41737 158.746519,81.6192344 160.603796,81.9257051 C163.431507,82.3926164 166.115095,80.6123968 166.820341,77.889708 C166.863578,77.7263851 166.899129,77.5630622 166.926993,77.3939749 L166.961582,77.1489906 C166.978877,77.0058429 166.990407,76.8626951 166.995211,76.7205081 C167.10955,73.9862906 165.164838,71.5316435 162.394776,71.0743394" id="Fill-623" fill="#3A3C54"></path>
                    <path d="M147.858571,52.1753508 C147.550317,52.5419973 147.266649,52.8891182 147,53.2221373 C147.926651,54.3839075 148.837228,55.2332689 149.201269,54.9425552 C150.058894,54.2613304 149.670268,52.7383375 150.701877,51.9019931 C151.733486,51.0656488 153.318248,53.7775307 155.267998,53.4499354 C156.211669,53.2904767 156.099147,52.0625366 155.728487,50.8356812 C153.263406,49.9158108 150.437119,49.0979072 147.858571,52.1753508" id="Fill-624" fill="#92B7E8"></path>
                    <path d="M160.677741,76.1052441 C159.262109,75.7456321 157.23387,75.1569935 156.07886,76.4075994 L156,76.5160857 C156.023081,77.0524902 156.119252,77.5748316 156.279857,78.0690469 C156.348138,78.280997 156.426036,78.4879246 156.520283,78.6918386 C157.260797,80.3452502 158.743749,81.6018831 160.602728,81.9223195 C163.43303,82.4105078 166.119077,80.5491642 166.824969,77.7024034 C166.868246,77.531638 166.903829,77.3608725 166.931719,77.18408 L166.96634,76.9279318 C166.983651,76.7782609 166.995191,76.62859 167,76.4799236 C166.519147,76.0761135 165.75459,75.6230828 164.540916,75.2263042 C161.461532,74.2187879 164.000437,76.9520399 160.677741,76.1052441" id="Fill-625" fill="#364B7F"></path>
                    <path d="M193.834675,23.0176784 C192.602145,23.9080345 191.492771,25.0908939 189.962533,25.2084881 C186.458889,25.483204 180.900382,20.4671687 176.065296,25.5899281 C172.005026,29.8934809 171.147782,31.8570077 172.10006,33.4410708 C170.586307,32.2226367 167.877844,30.9617106 166.394153,34.7227489 C163.923275,40.9858757 170.040348,43.6836251 169.247107,46.3329535 C168.453865,48.9822818 164.140495,46.9436528 164.000854,52.3006124 C163.995035,52.5180135 164.019279,52.3519981 164.063886,52.3519981 L164.067765,52.3519981 C165.213989,58.2811179 180.90911,56.052757 186.767264,52.2334158 L195.440552,47.2994 C195.440552,47.2994 202.322744,35.1170353 201.988186,27.8528755 C201.943578,26.7836576 201.737995,25.896266 201.330707,25.1047285 C201.085365,24.6215053 200.767293,24.2400652 200.364854,23.8912354 C197.216132,21.1648285 195.423097,21.8674292 193.834675,23.0176784" id="Fill-689" fill="#FFBE98"></path>
                    <path d="M184.988753,52.0064213 C183.37215,52.0596916 181.434568,52.4737928 179.977967,53.8598258 C179.977967,53.8598258 170.533962,55.650914 169.329071,64.3138713 C168.80809,68.0669148 168.895896,70.1494821 169.662733,71.6500965 C170.659817,73.6120518 172.815938,74.5819733 176.271585,76.9922032 C182.366285,81.2477968 188.160494,87.5156006 193.759579,83.9394547 C194.008362,83.7786387 194.234706,83.5977207 194.43666,83.3946905 C198.765487,79.0777858 192.591762,65.4807924 193.888361,58.4893165 C193.888361,58.4893165 189.133188,55.590608 188.086347,53.5713621 C187.835613,53.078863 187.799515,52.6396343 188.101957,52.3059411 C188.101957,52.3059411 186.731211,51.9481255 184.988753,52.0064213" id="Fill-690" fill="#FFBE98"></path>
                    <path d="M190.092723,25.2320835 C188.820889,25.3327639 187.281045,24.7347226 185.604759,24.168899 C182.635198,23.1711566 179.230973,22.2841627 176.125945,25.6217165 C175.754628,26.0194039 175.412549,26.3959485 175.09191,26.7573909 C171.902093,30.3677886 171.269588,32.1538581 172.139892,33.6207709 C170.618565,32.3783753 167.896549,31.0947008 166.406408,34.9265952 C163.923166,41.3067094 170.069873,44.05629 169.272663,46.7555304 C168.475452,49.4547708 164.140498,47.3767282 164.001132,52.8346104 C163.99431,53.0561072 164.018675,52.8859573 164.06448,52.8859573 L164.067404,52.8859573 C164.067404,52.8859573 167.140271,53.3611686 168.516385,52.3714807 C169.896397,51.3817928 170.549369,48.4167563 171.890398,48.3774909 C173.232402,48.3372188 179.527247,50.3125674 180.517425,49.4718864 C181.50468,48.6312054 173.330835,47.941545 173.823975,46.3890539 C174.31809,44.8325355 183.503553,49.2101175 183.679953,48.105654 C183.856353,47.0021973 178.50978,43.840834 178.366516,41.6731859 C178.226176,39.5055378 172.380614,35.7471401 172.874729,34.5087717 L172.944899,34.37386 C173.533549,33.4345123 175.410599,35.2497791 176.426117,35.1209083 C177.486465,34.9880102 176.199039,33.1294508 178.829444,32.6965252 C181.459849,32.2646065 186.117391,37.4667606 187.597785,36.5848007 C189.081104,35.7038475 187.234265,32.2404432 189.072332,32.0511641 C190.914298,31.8588647 191.868417,35.045398 193.61,34.8400101 C195.351584,34.6346221 194.037843,30.6305643 194.453016,29.5673797 C194.86819,28.5041951 196.677994,27.5497454 195.727774,26.0043019 C194.782426,24.455838 193.983266,23 193.983266,23 C192.744569,23.9081368 191.629644,25.1132807 190.092723,25.2320835" id="Fill-691" fill="#FFAB7A"></path>
                    <path d="M201.350243,25 C200.678444,25.8388909 199.919436,27.2493889 198.649631,28.3835935 C196.716652,30.1204381 195.622224,38.3211476 196.119604,38.9067695 C196.616984,39.4963957 197.839831,37.1999568 198.379378,34.5381299 C198.734924,32.7842672 200.699528,29.7360298 202,27.8560332 C201.955916,26.7728829 201.752747,25.8028527 201.350243,25" id="Fill-692" fill="#D18C64"></path>
                    <path d="M185.285269,51.7754506 C185.285269,51.7754506 181.97422,49.3929222 178.359848,50.5712379 C174.74642,51.7495536 173.397055,53.5663311 172.058083,53.0553624 C170.719112,52.5443937 167.368376,55.0653718 167.029145,53.4547746 C166.689914,51.8431813 169.386755,52.8123286 171.231266,51.5742505 C173.074832,50.3361723 175.068643,50.8082955 176.487934,50.2455327 C177.908169,49.6817739 177.825015,48.7026662 180.129709,49.0871378 C182.434403,49.4716094 184.370573,49.2216032 185.655683,49.4088588 C186.940793,49.5961144 188.046366,51.4128919 185.285269,51.7754506" id="Fill-693" fill="#D18C64"></path>
                    <path d="M189.882447,49 C189.882447,49 187.22479,45.5938809 186.934258,44.2657087 C186.643726,42.9385566 186.666587,42.0174049 186.431304,41.2258061 C186.19602,40.4331872 182.202866,39.3447389 183.143048,38.2338483 C184.08323,37.1239778 185.42349,40.2638504 187.377201,41.3920827 C189.330912,42.5192949 192,46.8639074 192,46.8639074 L189.882447,49" id="Fill-694" fill="#FFAB7A"></path>
                    <path d="M187,52 C185.431885,52.0521769 181.061606,53.1646271 179.648694,54.5222101 C179.648694,54.5222101 170.487953,56.2765343 169.319201,64.7616745 C168.813846,68.4376826 168.899018,70.4775028 169.642855,71.9473153 C169.642855,71.9473153 172.425147,72.7496578 172.570886,68.0921339 C172.72041,63.43461 171.776892,63.3981846 173.214409,61.0581013 C174.651926,58.7170335 177.466394,56.7234833 180.043325,56.494102 C182.620257,56.2637362 184.711707,57.0631252 185.261541,55.837461 C185.525575,55.2507174 186.884544,52.9706867 187,52" id="Fill-695" fill="#FFAB7A"></path>
                    <path d="M185.843781,55.2446525 C185.843781,55.2446525 181.977203,57.2789119 180.779691,59.014383 C179.582178,60.748813 176.911236,64.1635372 177.00227,64.8995768 C177.093303,65.6356164 181.843938,62.1209491 183.064913,61.0184513 C184.285888,59.9169946 187,55 187,55 L185.843781,55.2446525" id="Fill-696" fill="#D18C64"></path>
                    <path d="M187.355313,54.0721295 C184.571832,55.227081 184.640749,65.8475916 185.600801,69.6765837 C186.557025,73.5045671 188.890631,75.4251154 189.270632,78.9000568 C189.575972,81.7405315 193.170185,83.4633762 194.466208,84 C198.713218,79.6676709 192.656179,66.0220952 193.928272,59.0056386 C193.928272,59.0056386 189.262974,56.0965729 188.235919,54.0701121 C187.890377,53.9793299 187.593651,53.9732777 187.355313,54.0721295" id="Fill-697" fill="#D18C64"></path>
                    <path d="M205.768188,55.1316085 C203.19688,54.9063026 200.186306,54.9600918 196.668288,55.3721379 L193.887574,60.1147275 L192.911645,61.7750906 C192.911645,61.7750906 189.741339,69.8759573 195.224849,75.2924351 C196.030331,76.0901401 197.024765,76.8289813 198.243215,77.4724228 C198.732153,77.7322351 199.253233,77.9778389 199.817167,78.2041598 C210.870873,82.6666392 207.725889,77.8387987 211.516622,74.2684092 C211.676354,74.1171903 211.845827,73.9710459 212.028935,73.8269313 C216.386524,70.4199393 218.244879,73.4412724 219.504236,69.8739275 C219.571441,69.6831278 219.637671,69.4740601 219.703902,69.2416499 C220.230826,67.3468468 220.203554,64.1682055 218.370523,61.2920021 C216.49561,58.3518604 212.741889,55.7324245 205.768188,55.1316085" id="Fill-698" fill="#FFBE98"></path>
                    <path d="M205.879071,55.1316085 C203.287054,54.9063026 200.252235,54.9600918 196.705884,55.3721379 L193.902775,60.1147275 L192.918987,61.7750906 C192.918987,61.7750906 189.723148,69.8759573 195.25082,75.2924351 C196.062789,76.0901401 197.065232,76.8289813 198.293495,77.4724228 C198.786371,77.7322351 199.311647,77.9778389 199.880123,78.2041598 C211.02285,82.6666392 207.852538,77.8387987 211.673799,74.2684092 C212.091075,73.0860602 212.315913,71.5170374 211.02285,70.7051239 C208.787235,69.3106625 205.880053,70.5904412 204.44168,69.5826535 C203.006252,68.5758808 203.970404,67.9131565 202.770615,66.9804709 C201.566898,66.0437257 199.335211,66.1736318 199.508993,62.7737442 C199.653322,59.978732 204.714627,56.8376417 205.879071,55.1316085" id="Fill-699" fill="#D18C64"></path>
                    <path d="M193.599174,48.6308447 C193.533025,48.7717259 193.466877,48.9116218 193.404562,49.0564437 L193.86377,50.0298042 L193.393058,50.0573893 L193,50.238663 L193,50.2416185 L195.190581,53.8838391 L195.712103,54.481845 C195.712103,54.481845 203.487947,59.479677 208.070432,58.962456 C212.652917,58.4452351 221.004927,59.4816473 221.901292,53.9005872 C222.079606,52.7912714 221.963606,51.8267775 221.954978,50.9864167 L221.760366,50.7440617 L221.760366,50.7371654 L221.97511,50.6445582 C221.795838,46.3156653 219.382843,45.4329416 217.575733,44.6674546 L217.516295,44.6152399 C216.835633,44.2625445 216.596922,43.666509 216.900823,42.7867408 C217.381121,41.3848258 217.925651,39.2588014 216.008293,36.2461127 L216.008293,36.2421719 C216.008293,35.8963728 215.997748,35.5338256 215.714937,35.1604413 C211.43923,29.4680555 205.232743,23.0111679 193.599174,48.6308447" id="Fill-700" fill="#FFBE98"></path>
                    <path d="M194.078448,49.331699 C194.11375,49.9174444 194.202984,50.4050544 194.349094,50.7832844 L194.3589,50.8119072 L194,51 C194.157877,50.7045717 202.290983,33.1536767 217,36.4810786 L217,36.4769897 C217,36.1181823 216.989213,35.7419967 216.699936,35.3545665 C212.326455,29.4480448 205.978043,22.7482623 194.078448,49.331699" id="Fill-701" fill="#D18C64"></path>
                    <path d="M222.999298,51 C222.916374,52.4919889 221.914449,54.3852511 219.644264,55.6077575 C217.978941,56.5037377 214.969263,55.8152787 210.475721,57.1577737 C206.862157,58.2406213 198.956021,55.144523 196,53.8925112 L196.286822,54.4895034 C196.286822,54.4895034 204.076863,59.4788639 208.740157,58.9625197 C213.40345,58.4461754 221.84128,59.4808309 222.753451,53.9092309 C222.93491,52.8017955 223.008079,51.8389364 222.999298,51" id="Fill-702" fill="#FFAB7A"></path>
                    <path d="M217.808991,43.0002994 C213.477967,42.9717089 213,45 213,45 C214.516525,43.2028835 217.413646,44.2713509 218,44.5164123 C217.368337,44.2239724 217.527363,43.7297654 217.808991,43.0002994" id="Fill-703" fill="#FFAB7A"></path>
                    <path d="M195.392411,52.9517293 C195.392411,52.9517293 205.569368,57.3230957 210.26496,55.5962537 C214.960552,53.8684597 217.395973,52.3719902 216.947368,50.6261091 C216.498763,48.880228 212.22987,52.3462875 211.513625,51.632323 C210.798333,50.9183585 213.368051,49.7941025 212.631805,48.4804079 C211.894606,47.1676652 198.702184,48.5965461 195,52.1397137 L195.392411,52.9517293" id="Fill-704" fill="#D18C64"></path>
                    <path d="M193.81404,60 L192.876131,61.6261475 C192.876131,61.6261475 189.829328,69.5600772 195.09922,74.864936 L198,77 C196.551014,75.1790329 196.554758,74.0896334 194.60312,69.4596854 C193.496723,66.8365784 193.555694,62.9063907 193.81404,60" id="Fill-705" fill="#FFAB7A"></path>
                    <path d="M217.448667,61.0149146 C217.448667,61.0149146 212.250381,60.6298432 212.009291,63.7729389 C211.764491,66.9190119 216.436086,65.094885 216.718904,66.2630011 C217.005431,67.4311172 212.633345,65.6645525 213.133144,68.4533428 C213.632016,71.2431256 218.528011,69.4070892 218.528011,69.4070892 C218.591993,69.2205083 218.655048,69.0160631 218.718102,68.7887916 C219.219756,66.9358836 219.193792,63.8275237 217.448667,61.0149146" id="Fill-706" fill="#FFAB7A"></path>
                    <path d="M194.556977,47.0876388 C191.015971,46.5036461 187.673198,48.8998623 187.088213,52.4397714 C186.909414,53.5232188 187.007559,54.5862604 187.336006,55.5569903 C187.417632,55.7960289 187.509947,56.030209 187.621696,56.2605023 C188.495287,58.1300563 190.245384,59.5497124 192.440536,59.9121571 C195.782336,60.4640837 198.953112,58.3603496 199.787833,55.1420737 C199.837391,54.9496768 199.880148,54.7563082 199.913187,54.5571093 C199.928735,54.4609109 199.941367,54.3647124 199.953028,54.268514 C200.366988,50.8374354 198.001782,47.6560842 194.556977,47.0876388" id="Fill-707" fill="#3A3C54"></path>
                    <path d="M194.741528,50.0860736 C191.093038,49.51214 187.644794,51.8689923 187.042052,55.3488829 C187.026032,55.4434244 187.013016,55.5379659 187,55.6334623 C187.759935,57.8069615 189.723352,59.514438 192.259473,59.9136132 C195.907964,60.4885018 199.356208,58.1335594 199.958949,54.6508039 C199.974969,54.5562624 199.987985,54.4617209 200,54.3671794 C199.242067,52.1927253 197.277649,50.4852488 194.741528,50.0860736" id="Fill-708" fill="#3A3C54"></path>
                    <path d="M194.246965,51.0916555 C190.950799,50.5149485 187.826198,52.7170132 187,56.0857145 C187.861661,58.0426533 189.587859,59.5286655 191.753035,59.9080513 C195.049201,60.4857754 198.176677,58.2837107 199,54.9150094 C198.138339,52.9580706 196.412141,51.4710412 194.246965,51.0916555" id="Fill-709" fill="#364B7F"></path>
                    <path d="M176.049393,25.1754215 C175.672561,25.5421267 175.325401,25.8893363 175,26.2226203 C176.132475,27.3840084 177.245168,28.2325365 177.690245,27.9428858 C178.73865,27.2614638 178.2639,25.7380123 179.524953,24.901553 C180.786005,24.0650936 182.722586,26.7777842 185.105233,26.449142 C186.258478,26.2903912 186.120999,25.063089 185.668998,23.8357868 C182.65533,22.9157743 179.200541,22.0978823 176.049393,25.1754215" id="Fill-710" fill="#FFAB7A"></path>
                </g>
            </g>
        </g>
    </g>
</svg>